<?xml version="1.0" encoding="utf-8"?>
<!-- Generator: Adobe Illustrator 22.1.0, SVG Export Plug-In . SVG Version: 6.00 Build 0)  -->
<svg version="1.1" id="Layer_1" xmlns="http://www.w3.org/2000/svg" xmlns:xlink="http://www.w3.org/1999/xlink" x="0px" y="0px"
	 viewBox="0 0 300 26.2" style="enable-background:new 0 0 300 26.2;" xml:space="preserve">
<style type="text/css">
	.st0{fill:#020203;}
</style>
<g>
	<g>
		<path class="st0" d="M40.3,22.3c-4.4,0-6.4-3.7-6.4-8.2c0-4.5,2-8.2,6.4-8.2s6.4,3.7,6.4,8.2C46.7,18.6,44.7,22.3,40.3,22.3z
			 M40.3,7.2c-3.3,0-4.4,3.6-4.4,6.8c0,3.2,1.1,6.8,4.4,6.8c3.4,0,4.4-3.6,4.4-6.8C44.7,10.8,43.6,7.2,40.3,7.2z"/>
		<path class="st0" d="M52.2,10.8V22h-1.8V10.8h-1.8V9.7h1.8V7.9c0-2.2,1.3-3.9,3.9-3.9c0.2,0,0.4,0,0.4,0v1.1h-0.2
			c-1.2,0-2.4,0.8-2.4,2.5v2h2.6v1.1H52.2z"/>
		<path class="st0" d="M59.6,10.8V22h-1.8V10.8H56V9.7h1.8V7.9c0-2.2,1.3-3.9,3.9-3.9c0.2,0,0.4,0,0.4,0v1.1H62
			c-1.2,0-2.4,0.8-2.4,2.5v2h2.6v1.1H59.6z"/>
		<path class="st0" d="M65.1,7.3c-0.6,0-1.1-0.5-1.1-1.1s0.5-1.1,1.1-1.1c0.6,0,1.1,0.5,1.1,1.1S65.7,7.3,65.1,7.3z M64.2,22V9.7H66
			V22H64.2z"/>
		<path class="st0" d="M73.7,22.3c-2.9,0-5.2-2.5-5.2-6.5c0-4,2.3-6.5,5.2-6.5c1.5,0,2.5,0.4,3,0.8l-0.5,1.1
			c-0.4-0.3-1.2-0.7-2.1-0.7c-2.5,0-3.8,2.2-3.8,5.1c0,3,1.5,5.2,3.7,5.2c0.9,0,1.7-0.3,2.2-0.7l0.5,1.2
			C76.3,21.9,75.2,22.3,73.7,22.3z"/>
		<path class="st0" d="M79.7,16.6c0.2,2.9,1.8,4.4,4.3,4.4c1.5,0,2.7-0.4,3.3-0.8l0.5,1.3c-0.8,0.4-2.2,0.8-4,0.8
			c-3.5,0-5.9-2.1-5.9-6.5c0-4.2,2.3-6.4,5.4-6.4c3.1,0,5.1,1.9,5.1,6L79.7,16.6z M83.3,10.5c-2,0-3.7,1.6-3.7,5l7-1
			C86.7,11.7,85.3,10.5,83.3,10.5z"/>
		<path class="st0" d="M97.2,10.8V22h-1.8V10.8h-1.8V9.7h1.8V7.9c0-2.2,1.3-3.9,3.9-3.9c0.2,0,0.4,0,0.4,0v1.1h-0.2
			c-1.2,0-2.4,0.8-2.4,2.5v2h2.6v1.1H97.2z"/>
		<path class="st0" d="M106.3,22.3c-3.6,0-5.3-2.8-5.3-6.5c0-3.6,1.7-6.5,5.3-6.5c3.6,0,5.3,2.8,5.3,6.5
			C111.6,19.5,109.9,22.3,106.3,22.3z M106.3,10.6c-2.7,0-3.5,2.7-3.5,5.3c0,2.5,0.8,5.2,3.5,5.2c2.7,0,3.5-2.6,3.5-5.2
			C109.8,13.3,109,10.6,106.3,10.6z"/>
		<path class="st0" d="M119.3,10.8c-1.1-0.3-2.8-0.3-3.6,0.2v11h-1.8V10.2c1.3-0.5,2.6-0.8,4.9-0.8c0.3,0,0.7,0,0.9,0L119.3,10.8z"
			/>
		<path class="st0" d="M135.6,22.1l-7-10.8c-0.5-0.8-0.9-1.6-0.9-1.6h0c0,0,0.1,0.9,0.1,1.9v10.5h-2.3V6.4h2.6l6.6,10.1
			c0.6,0.9,0.9,1.6,0.9,1.6h0c0,0-0.1-0.9-0.1-1.8V6.4h2.3v15.8H135.6z"/>
		<path class="st0" d="M145.4,22.4c-3.6,0-5.3-1.4-5.3-3.8c0-3.3,3.5-4.2,7.6-4.6v-0.7c0-1.7-1.2-2.2-2.8-2.2
			c-1.2,0-2.6,0.3-3.3,0.7l-0.6-1.5c0.9-0.4,2.5-0.9,4.4-0.9c2.7,0,4.8,1.1,4.8,4.3v7.8C149.1,22.1,147.4,22.4,145.4,22.4z
			 M147.7,15.3c-3.1,0.3-5.1,0.9-5.1,3.3c0,1.7,1.2,2.4,3,2.4c0.9,0,1.6-0.2,2.1-0.4V15.3z"/>
		<path class="st0" d="M157.3,22.4c-2.6,0-3.6-1.7-3.6-3.3v-7.7H152V9.8h1.7V7l2.6-0.7v3.5h2.4v1.6h-2.4v7.5c0,1,0.6,1.7,1.7,1.7
			c0.3,0,0.5,0,0.7-0.1v1.6C158.5,22.3,158,22.4,157.3,22.4z"/>
		<path class="st0" d="M162.2,7.6c-0.8,0-1.5-0.6-1.5-1.4c0-0.8,0.7-1.4,1.5-1.4c0.8,0,1.5,0.6,1.5,1.4C163.7,7,163,7.6,162.2,7.6z
			 M160.8,22.1V9.8h2.7v12.3H160.8z"/>
		<path class="st0" d="M171.4,22.4c-3.8,0-5.6-2.8-5.6-6.5s1.9-6.5,5.6-6.5c3.8,0,5.6,2.8,5.6,6.5S175.2,22.4,171.4,22.4z
			 M171.4,11.1c-2.3,0-2.9,2.4-2.9,4.8c0,2.4,0.7,4.7,2.9,4.7c2.3,0,2.9-2.3,2.9-4.7C174.4,13.5,173.7,11.1,171.4,11.1z"/>
		<path class="st0" d="M186.8,22.1v-8.8c0-1.6-1.3-2.2-2.9-2.2c-0.8,0-1.6,0.2-2.1,0.4v10.6h-2.6V10.3c1.2-0.5,3-0.9,4.9-0.9
			c3.2,0,5.4,1.1,5.4,3.8v8.9H186.8z"/>
		<path class="st0" d="M196.9,22.4c-3.6,0-5.3-1.4-5.3-3.8c0-3.3,3.5-4.2,7.6-4.6v-0.7c0-1.7-1.2-2.2-2.8-2.2
			c-1.2,0-2.6,0.3-3.3,0.7l-0.6-1.5c0.9-0.4,2.5-0.9,4.4-0.9c2.7,0,4.8,1.1,4.8,4.3v7.8C200.6,22.1,198.9,22.4,196.9,22.4z
			 M199.2,15.3c-3.1,0.3-5.1,0.9-5.1,3.3c0,1.7,1.2,2.4,3,2.4c0.9,0,1.6-0.2,2.1-0.4V15.3z"/>
		<path class="st0" d="M204.4,22.1v-6v-12h2.6v6.1v11.9H204.4z"/>
		<path class="st0" d="M217.5,22.4c-1.9,0-3.4-0.4-4.3-0.9l0.7-1.9c0.6,0.4,1.8,0.8,3,0.8c1.8,0,3.1-1.1,3.1-2.6
			c0-3.5-6.6-2.1-6.6-7c0-2.5,2-4.7,5.2-4.7c1.7,0,3.1,0.5,3.8,0.9l-0.7,1.7c-0.6-0.3-1.7-0.7-2.8-0.7c-1.7,0-2.8,1-2.8,2.5
			c0,3.4,6.7,1.9,6.7,7.1C223,20.4,220.7,22.4,217.5,22.4z"/>
		<path class="st0" d="M229.7,22.4c-2.6,0-3.6-1.7-3.6-3.3v-7.7h-1.7V9.8h1.7V7l2.6-0.7v3.5h2.4v1.6h-2.4v7.5c0,1,0.6,1.7,1.7,1.7
			c0.3,0,0.5,0,0.7-0.1v1.6C230.9,22.3,230.4,22.4,229.7,22.4z"/>
		<path class="st0" d="M237.9,22.4c-3.6,0-5.3-1.4-5.3-3.8c0-3.3,3.5-4.2,7.6-4.6v-0.7c0-1.7-1.2-2.2-2.8-2.2
			c-1.2,0-2.6,0.3-3.3,0.7l-0.6-1.5c0.9-0.4,2.5-0.9,4.4-0.9c2.7,0,4.8,1.1,4.8,4.3v7.8C241.6,22.1,239.9,22.4,237.9,22.4z
			 M240.2,15.3c-3.1,0.3-5.1,0.9-5.1,3.3c0,1.7,1.2,2.4,3,2.4c0.9,0,1.6-0.2,2.1-0.4V15.3z"/>
		<path class="st0" d="M249.8,22.4c-2.6,0-3.6-1.7-3.6-3.3v-7.7h-1.7V9.8h1.7V7l2.6-0.7v3.5h2.4v1.6h-2.4v7.5c0,1,0.6,1.7,1.7,1.7
			c0.3,0,0.5,0,0.7-0.1v1.6C251,22.3,250.5,22.4,249.8,22.4z"/>
		<path class="st0" d="M254.7,7.6c-0.8,0-1.5-0.6-1.5-1.4c0-0.8,0.7-1.4,1.5-1.4c0.8,0,1.5,0.6,1.5,1.4C256.2,7,255.5,7.6,254.7,7.6
			z M253.3,22.1V9.8h2.7v12.3H253.3z"/>
		<path class="st0" d="M261.7,22.4c-1.5,0-3-0.4-3.7-0.9l0.7-1.7c0.5,0.4,1.6,0.7,2.7,0.7c1.3,0,2.4-0.9,2.4-1.9
			c0-2.9-5.4-1.6-5.4-5.6c0-1.8,1.6-3.6,4.3-3.6c1.5,0,2.6,0.4,3.5,0.9l-0.7,1.5c-0.4-0.3-1.2-0.7-2.3-0.7c-1.4,0-2.2,0.8-2.2,1.8
			c0,2.8,5.5,1.5,5.5,5.7C266.6,20.6,264.7,22.4,261.7,22.4z"/>
		<path class="st0" d="M273.3,22.4c-2.6,0-3.6-1.7-3.6-3.3v-7.7H268V9.8h1.7V7l2.6-0.7v3.5h2.4v1.6h-2.4v7.5c0,1,0.6,1.7,1.7,1.7
			c0.3,0,0.5,0,0.7-0.1v1.6C274.5,22.3,273.9,22.4,273.3,22.4z"/>
		<path class="st0" d="M278.1,7.6c-0.8,0-1.5-0.6-1.5-1.4c0-0.8,0.7-1.4,1.5-1.4c0.8,0,1.5,0.6,1.5,1.4C279.7,7,279,7.6,278.1,7.6z
			 M276.8,22.1V9.8h2.7v12.3H276.8z"/>
		<path class="st0" d="M287.1,22.4c-3,0-5.4-2.5-5.4-6.5c0-4.1,2.4-6.5,5.4-6.5c1.5,0,2.6,0.4,3.2,0.9l-0.6,1.5
			c-0.4-0.3-1.1-0.6-1.9-0.6c-2.1,0-3.3,1.9-3.3,4.6c0,2.8,1.3,4.7,3.2,4.7c0.8,0,1.5-0.3,1.9-0.6l0.7,1.6
			C289.7,22,288.6,22.4,287.1,22.4z"/>
		<path class="st0" d="M295.2,22.4c-1.5,0-3-0.4-3.7-0.9l0.7-1.7c0.5,0.4,1.6,0.7,2.7,0.7c1.3,0,2.4-0.9,2.4-1.9
			c0-2.9-5.4-1.6-5.4-5.6c0-1.8,1.6-3.6,4.3-3.6c1.5,0,2.6,0.4,3.5,0.9l-0.7,1.5c-0.4-0.3-1.2-0.7-2.3-0.7c-1.4,0-2.2,0.8-2.2,1.8
			c0,2.8,5.5,1.5,5.5,5.7C300,20.6,298.1,22.4,295.2,22.4z"/>
	</g>
	<g>
		<path class="st0" d="M0,15.3c0.4-0.8,0.7-1.5,1.1-2.2C0.6,11.9,0.3,11.2,0,9.9C0,12.1,0,13.5,0,15.3z M2.5,0C2.5,0,0,0,0,3
			c0,0.2,0-0.3,0,0.5c0.2,2.8,1.1,5.6,2.1,8.1c1.4-2.2,2.6-3.5,4.6-5.2C10.7,3,15.3,1,22.6,0H2.5z"/>
		<path class="st0" d="M26.1,1.7c-8.3,0.8-14,3.2-18,6.6c-2.2,1.9-3.5,3.4-4.9,5.9c3.2,6.2,9.7,11.4,19.8,12l0.2,0
			c0,0,3.1,0.1,3.1-3.4V1.6C26.2,1.6,26.2,1.7,26.1,1.7z M4.8,19.3c-1-1.1-1.8-2.3-2.5-3.6c-0.9,1.7-1.6,3.5-2.3,5.4
			c0,3,0,5.1,0,5.1l15.3,0C10.4,24.7,7.5,22.5,4.8,19.3z"/>
	</g>
</g>
</svg>
