<?xml version="1.0" encoding="UTF-8"?>
<svg width="1300px" height="700px" viewBox="0 0 1300 700" version="1.1" xmlns="http://www.w3.org/2000/svg" xmlns:xlink="http://www.w3.org/1999/xlink">
    <!-- Generator: Sketch 55 (78076) - https://sketchapp.com -->
    <title>Group 4</title>
    <desc>Created with Sketch.</desc>
    <g id="Page-1" stroke="none" stroke-width="1" fill="none" fill-rule="evenodd">
        <g id="Group-4">
            <g id="Group-3">
                <g id="Group-2">
                    <rect id="Rectangle" fill="#F7F7F7" x="0" y="0" width="1300" height="700"></rect>
                    <g id="Group" transform="translate(515.000000, 286.000000)" fill="#666C83">
                        <g id="up" transform="translate(115.000000, 0.000000)" fill-rule="nonzero">
                            <path d="M27.0833333,9.83040936 C26.7633333,9.83040936 26.4433333,9.70594412 26.2,9.45530864 L20,3.11440156 L13.8,9.45530864 C13.3116667,9.95487459 12.52,9.95487459 12.0316667,9.45530864 C11.5433333,8.95574269 11.5433333,8.14586615 12.0316667,7.64630019 L19.115,0.400036387 C19.6033333,-0.0995295647 20.395,-0.0995295647 20.8833333,0.400036387 L27.9666667,7.64630019 C28.455,8.14586615 28.455,8.95574269 27.9666667,9.45530864 C27.7233333,9.70594412 27.4033333,9.83040936 27.0833333,9.83040936 Z" id="Path"></path>
                            <path d="M20,23.8966862 C19.31,23.8966862 18.75,23.3238051 18.75,22.6179337 L18.75,1.30539311 C18.75,0.599521767 19.31,0.0266406758 20,0.0266406758 C20.69,0.0266406758 21.25,0.599521767 21.25,1.30539311 L21.25,22.6179337 C21.25,23.3238051 20.69,23.8966862 20,23.8966862 Z" id="Path"></path>
                            <path d="M35.4166667,40.9467186 L4.58333333,40.9467186 C2.055,40.9467186 0,38.8444496 0,36.2579597 L0,26.8804418 C0,25.2351137 1.30833333,23.8966862 2.91666667,23.8966862 L7.51,23.8966862 C8.80833333,23.8966862 9.93166667,24.7508928 10.305,26.0245302 L12.0916667,32.1182118 C12.1433333,32.2972372 12.3083333,32.4217024 12.49,32.4217024 L27.51,32.4217024 C27.6916667,32.4217024 27.8566667,32.2972372 27.9083333,32.1182118 L29.695,26.0228252 C30.07,24.7508928 31.1933333,23.8966862 32.49,23.8966862 L37.0833333,23.8966862 C38.6916667,23.8966862 40,25.2351137 40,26.8804418 L40,36.2579597 C40,38.8444496 37.945,40.9467186 35.4166667,40.9467186 Z M2.91666667,26.454191 C2.68666667,26.454191 2.5,26.6451514 2.5,26.8804418 L2.5,36.2579597 C2.5,37.432707 3.435,38.3892138 4.58333333,38.3892138 L35.4166667,38.3892138 C36.565,38.3892138 37.5,37.432707 37.5,36.2579597 L37.5,26.8804418 C37.5,26.6451514 37.3133333,26.454191 37.0833333,26.454191 L32.49,26.454191 C32.305,26.454191 32.1433333,26.5769513 32.0916667,26.7576816 L30.305,32.8530682 C29.9366667,34.1045406 28.7883333,34.9792073 27.51,34.9792073 L12.49,34.9792073 C11.1916667,34.9792073 10.0683333,34.1250006 9.695,32.8513632 L7.90833333,26.7576816 C7.85666667,26.5769513 7.695,26.454191 7.51,26.454191 L2.91666667,26.454191 Z" id="Shape"></path>
                        </g>
                        <text id="Insert-a-Screenshot" font-family="OpenSans, Open Sans" font-size="30" font-weight="normal">
                            <tspan x="0.234375" y="99">Insert a Screenshot</tspan>
                        </text>
                    </g>
                </g>
            </g>
        </g>
    </g>
</svg>